<svg width="40" height="40" viewBox="0 0 40 40" fill="none" xmlns="http://www.w3.org/2000/svg">
<circle cx="20" cy="20" r="20" fill="white"/>
<path d="M26.4385 11H13.5615C12.1077 11 11 12.1077 11 13.5615V26.4385C11 27.8923 12.1077 29 13.5615 29H26.4385C27.8923 29 29 27.8923 29 26.4385V13.5615C29 12.1077 27.8923 11 26.4385 11ZM20 25.4C22.9769 25.4 25.4 23.0462 25.4 20.2077C25.4 19.7231 25.3308 19.1692 25.1923 18.7538H26.7154V26.0923C26.7154 26.4385 26.4385 26.7846 26.0231 26.7846H13.9769C13.6308 26.7846 13.2846 26.5077 13.2846 26.0923V18.6846H14.8769C14.7385 19.1692 14.6692 19.6538 14.6692 20.1385C14.6 23.0462 17.0231 25.4 20 25.4ZM20 23.3231C18.0615 23.3231 16.5385 21.8 16.5385 19.9308C16.5385 18.0615 18.0615 16.5385 20 16.5385C21.9385 16.5385 23.4615 18.0615 23.4615 19.9308C23.4615 21.8692 21.9385 23.3231 20 23.3231ZM26.6462 15.9154C26.6462 16.3308 26.3 16.6769 25.8846 16.6769H23.9462C23.5308 16.6769 23.1846 16.3308 23.1846 15.9154V14.0462C23.1846 13.6308 23.5308 13.2846 23.9462 13.2846H25.8846C26.3 13.2846 26.6462 13.6308 26.6462 14.0462V15.9154Z" fill="#333534"/>
</svg>
