<svg width="230" height="70" viewBox="0 0 230 70" fill="none" xmlns="http://www.w3.org/2000/svg">
<path d="M85.1915 20.5724L84.1681 22.664H82.3438V22.4506L87.1938 12.5049H87.9947L92.8447 22.4506V22.664H91.0204L89.997 20.5724H85.1915ZM85.7699 19.1638H89.463L87.6387 15.1087L85.7699 19.1638Z" fill="#181B1C"/>
<path d="M98.8512 12.4634C100.898 12.4634 103.034 13.5732 103.612 15.8355H101.921C101.387 14.5977 100.231 14.0001 98.8512 14.0001C96.7154 14.0001 95.2915 15.4941 95.2915 17.6283C95.2915 19.6345 96.7154 21.2139 98.8512 21.2139C100.275 21.2139 101.521 20.5309 101.966 19.2077H103.657C103.123 21.6834 100.987 22.7506 98.8512 22.7506C96.0035 22.7506 93.5117 20.8724 93.5117 17.6283C93.5117 14.3842 96.0035 12.4634 98.8512 12.4634Z" fill="#181B1C"/>
<path d="M110.51 12.4634C112.557 12.4634 114.692 13.5732 115.271 15.8355H113.58C113.046 14.5977 111.889 14.0001 110.51 14.0001C108.374 14.0001 106.95 15.4941 106.95 17.6283C106.95 19.6345 108.374 21.2139 110.51 21.2139C111.934 21.2139 113.18 20.5309 113.625 19.2077H115.315C114.781 21.6834 112.646 22.7506 110.51 22.7506C107.662 22.7506 105.17 20.8724 105.17 17.6283C105.17 14.3842 107.662 12.4634 110.51 12.4634Z" fill="#181B1C"/>
<path d="M122.167 22.8347C119.275 22.8347 116.828 20.9138 116.828 17.6271C116.828 14.3403 119.319 12.4194 122.212 12.4194C125.104 12.4194 127.551 14.3403 127.551 17.6271C127.551 20.7004 125.326 22.8347 122.167 22.8347ZM122.167 21.2553C124.125 21.2553 125.771 19.9748 125.771 17.6271C125.771 15.322 124.125 13.9988 122.167 13.9988C120.165 13.9988 118.563 15.322 118.563 17.6271C118.607 19.9748 120.209 21.2553 122.167 21.2553Z" fill="#181B1C"/>
<path d="M129.777 22.6641V12.5903H131.557V21.1701H136.095V12.5903H137.875V21.2555H139.121V24.1581H137.564V22.7068H129.777V22.6641Z" fill="#181B1C"/>
<path d="M141.745 22.664H141.122V12.5476H142.857V16.2185L142.724 19.2919L149.131 12.5049H149.754V22.6214H148.019V18.9504L148.152 15.749L141.745 22.664Z" fill="#181B1C"/>
<path d="M154.205 20.5724L153.181 22.664H151.357V22.4506L156.207 12.5049H157.008L161.858 22.4506V22.664H160.034L159.01 20.5724H154.205ZM154.783 19.1638H158.476L156.652 15.1087L154.783 19.1638Z" fill="#181B1C"/>
<path d="M163.415 22.6641V12.5903H165.194V21.1701H169.733V12.5903H171.513V21.2555H172.759V24.1581H171.201V22.7068H163.415V22.6641Z" fill="#181B1C"/>
<path d="M175.383 22.664H174.76V12.5476H176.496V16.2185L176.362 19.2919L182.769 12.5049H183.392V22.6214H181.657V18.9504L181.791 15.749L175.383 22.664Z" fill="#181B1C"/>
<path d="M188.11 18.9078C186.775 18.4809 185.93 17.3711 185.93 15.9198C185.93 14.0843 187.309 12.5903 189.578 12.5903H193.939V22.6641H192.159V19.1639H189.845L187.354 22.6641H185.485V22.408L188.11 18.9078ZM192.204 17.7553V14.0416H189.623C188.466 14.0416 187.665 14.81 187.665 15.8771C187.665 16.9869 188.466 17.7553 189.623 17.7553H192.204Z" fill="#181B1C"/>
<path d="M83.6348 39.3965V29.3228H87.9953C90.3536 29.3228 91.6884 30.9875 91.6884 32.8657C91.6884 34.7438 90.3091 36.3659 87.9953 36.3659H85.4146V39.3965H83.6348ZM87.9953 34.8719C89.1967 34.8719 90.0421 33.9755 90.0421 32.7803C90.0421 31.6278 89.2412 30.7314 87.9953 30.7314H85.3701V34.8719H87.9953Z" fill="#181B1C"/>
<path d="M98.4064 39.5676C95.5141 39.5676 93.0669 37.6468 93.0669 34.36C93.0669 31.0732 95.5586 29.1523 98.4509 29.1523C101.343 29.1523 103.79 31.0732 103.79 34.36C103.79 37.3907 101.566 39.5676 98.4064 39.5676ZM98.4064 37.9456C100.364 37.9456 102.01 36.665 102.01 34.3173C102.01 32.0123 100.364 30.689 98.4064 30.689C96.4041 30.689 94.8022 32.0123 94.8022 34.3173C94.8467 36.665 96.4486 37.9456 98.4064 37.9456Z" fill="#181B1C"/>
<path d="M105.214 37.9454C106.193 37.9454 106.371 37.3905 106.504 36.4088L107.394 29.2803C109.441 29.2803 111.888 29.2803 113.935 29.2803V37.9454H115.047V40.8907H113.446V39.3967C110.998 39.3967 108.996 39.3967 106.549 39.3967V40.8907H104.902V37.9454H105.214ZM108.24 36.4941C108.195 37.0064 108.062 37.6893 107.572 37.9881H112.155V30.7316H108.862L108.24 36.4941Z" fill="#181B1C"/>
<path d="M117.718 39.3965H117.139V29.28H118.874V32.9509L118.741 36.0243L125.148 29.2373H125.771V39.3538H124.036V35.6828L124.169 32.4814L117.718 39.3965Z" fill="#181B1C"/>
<path d="M127.596 30.7743V29.2803H135.427V30.7743H132.357V39.3967H130.621V30.7743H127.596Z" fill="#181B1C"/>
<path d="M143.658 30.7741H139.031V33.4206H143.436V34.9146H139.031V37.8598H143.747V39.3965H137.251V29.3228H143.658V30.7741Z" fill="#181B1C"/>
<path d="M148.641 36.7074C148.419 39.0551 147.573 39.6953 145.082 39.3539L145.126 38.116C146.461 38.2867 146.772 37.8172 146.906 36.6647L147.751 29.3228C149.843 29.3228 152.468 29.3228 154.515 29.3228V39.3965H152.735V30.8167H149.309L148.641 36.7074Z" fill="#181B1C"/>
<path d="M163.727 30.7741H159.099V33.4206H163.504V34.9146H159.099V37.8598H163.816V39.3965H157.319V29.3228H163.727V30.7741Z" fill="#181B1C"/>
<path d="M166.841 39.3969H166.218V29.2804H167.954V32.9513L167.82 36.0247L174.228 29.2377H174.85V39.3542H173.115V35.6832L173.249 32.4818L166.841 39.3969ZM168.399 26.3351C168.488 27.6583 169.466 28.5121 170.935 28.5121C172.492 28.5121 173.293 27.6157 173.427 26.3351C173.115 26.2924 172.626 26.2497 172.314 26.207C172.181 26.89 171.647 27.1461 170.935 27.1461C170.223 27.1461 169.733 26.8473 169.644 26.207L168.399 26.3351Z" fill="#181B1C"/>
<path d="M181.969 37.9454C182.948 37.9454 183.126 37.3905 183.26 36.4088L184.149 29.2803C186.196 29.2803 188.644 29.2803 190.69 29.2803V37.9454H191.803V40.8907H190.201V39.3967C187.754 39.3967 185.751 39.3967 183.304 39.3967V40.8907H181.658V37.9454H181.969ZM184.995 36.4941C184.95 37.0064 184.817 37.6893 184.327 37.9881H188.911V30.7316H185.618L184.995 36.4941Z" fill="#181B1C"/>
<path d="M200.301 30.7741H195.674V33.4206H200.079V34.9146H195.674V37.8598H200.39V39.3965H193.894V29.3228H200.301V30.7741Z" fill="#181B1C"/>
<path d="M201.77 30.7743V29.2803H209.601V30.7743H206.531V39.3967H204.84V30.7743H201.77Z" fill="#181B1C"/>
<path d="M217.833 30.7741H213.206V33.4206H217.611V34.9146H213.206V37.8598H217.922V39.3965H211.426V29.3228H217.833V30.7741Z" fill="#181B1C"/>
<path d="M220.903 39.3969H220.28V29.2804H222.016V32.9513L221.882 36.0247L228.29 29.2377H228.912V39.3542H227.177V35.6832L227.311 32.4818L220.903 39.3969ZM222.461 26.3351C222.55 27.6583 223.528 28.5121 224.997 28.5121C226.554 28.5121 227.355 27.6157 227.489 26.3351C227.177 26.2924 226.688 26.2497 226.376 26.207C226.243 26.89 225.709 27.1461 224.997 27.1461C224.285 27.1461 223.795 26.8473 223.706 26.207L222.461 26.3351Z" fill="#181B1C"/>
<path d="M88.3948 45.8848C90.4416 45.8848 92.5774 46.9946 93.1558 49.2569H91.465C90.931 48.019 89.7741 47.4214 88.3948 47.4214C86.259 47.4214 84.8351 48.9154 84.8351 51.0497C84.8351 53.0559 86.259 54.6353 88.3948 54.6353C89.8186 54.6353 91.0645 53.9523 91.5095 52.6291H93.2003C92.6664 55.1048 90.5306 56.172 88.3948 56.172C85.547 56.172 83.0553 54.2938 83.0553 51.0497C83.0108 47.8056 85.5025 45.8848 88.3948 45.8848Z" fill="#181B1C"/>
<path d="M98.7183 54.6354C99.6972 54.6354 99.8752 54.0804 100.009 53.0987L100.899 45.9702C102.945 45.9702 105.393 45.9702 107.439 45.9702V54.6354H108.552V57.5807H106.905V56.0867C104.458 56.0867 102.456 56.0867 100.009 56.0867V57.5807H98.3623V54.6354H98.7183ZM101.788 53.1841C101.744 53.6963 101.61 54.3793 101.121 54.6781H105.704V47.4215H102.411L101.788 53.1841Z" fill="#181B1C"/>
<path d="M111.266 56.0869H110.643V45.9704H112.378V49.6414L112.244 52.7147L118.652 45.9277H119.275V56.0442H117.584V52.3732L117.717 49.1718L111.266 56.0869Z" fill="#181B1C"/>
<path d="M126.883 45.8848C128.93 45.8848 131.066 46.9946 131.644 49.2569H129.954C129.42 48.019 128.263 47.4214 126.883 47.4214C124.748 47.4214 123.324 48.9154 123.324 51.0497C123.324 53.0559 124.748 54.6353 126.883 54.6353C128.307 54.6353 129.553 53.9523 129.998 52.6291H131.689C131.155 55.1048 129.019 56.172 126.883 56.172C124.036 56.172 121.544 54.2938 121.544 51.0497C121.544 47.8056 123.991 45.8848 126.883 45.8848Z" fill="#181B1C"/>
<path d="M136.183 53.3973C135.96 55.745 135.115 56.3853 132.623 56.0438L132.668 54.8059C134.002 54.9766 134.314 54.5071 134.447 53.3546L135.293 46.0127C137.384 46.0127 140.009 46.0127 142.056 46.0127V56.0865H140.276V47.5067H136.85L136.183 53.3973Z" fill="#181B1C"/>
<path d="M151.268 47.464H146.64V50.1105H151.045V51.6045H146.64V54.5498H151.357V56.0865H144.86V46.0127H151.268V47.464Z" fill="#181B1C"/>
<path d="M155.539 50.4522C156.34 50.4522 157.141 50.4522 157.585 50.1961C158.208 49.8973 158.52 48.8728 158.787 47.8057C159.143 46.5251 159.988 45.5861 162.124 45.9702V47.1227C161.056 47.0374 160.7 47.2508 160.389 48.2752C160.077 49.3851 159.721 50.3668 159.009 50.9644L162.48 55.7879V56.044H160.478L157.452 51.6474C157.007 51.8181 155.984 51.8181 155.494 51.8181V56.0867H153.714V46.0129H155.494V50.4522H155.539Z" fill="#181B1C"/>
<path d="M168.576 45.8848C170.623 45.8848 172.758 46.9946 173.337 49.2569H171.646C171.112 48.019 169.955 47.4214 168.576 47.4214C166.44 47.4214 165.016 48.9154 165.016 51.0497C165.016 53.0559 166.44 54.6353 168.576 54.6353C170 54.6353 171.246 53.9523 171.69 52.6291H173.381C172.847 55.1048 170.712 56.172 168.576 56.172C165.728 56.172 163.236 54.2938 163.236 51.0497C163.236 47.8056 165.728 45.8848 168.576 45.8848Z" fill="#181B1C"/>
<path d="M176.097 56.0869H175.474V45.9704H177.209V49.6414L177.075 52.7147L183.483 45.9277H184.106V56.0442H182.37V52.3732L182.504 49.1718L176.097 56.0869Z" fill="#181B1C"/>
<path d="M193.405 47.464H188.777V50.1105H193.182V51.6045H188.777V54.5498H193.494V56.0865H186.998V46.0127H193.405V47.464Z" fill="#181B1C"/>
<path d="M196.52 56.0868H195.897V45.9703H197.632V49.6413L197.499 52.7146L203.906 45.9276H204.529V56.0441H202.794V52.3732L202.927 49.1717L196.52 56.0868ZM198.033 43.025C198.122 44.3483 199.101 45.202 200.569 45.202C202.126 45.202 202.927 44.3056 203.061 43.025C202.749 42.9823 202.26 42.9397 201.948 42.897C201.815 43.5799 201.281 43.8361 200.569 43.8361C199.857 43.8361 199.368 43.5373 199.279 42.897L198.033 43.025Z" fill="#181B1C"/>
<path d="M12.3565 16.9483C12.8833 15.8564 13.3144 14.717 13.6736 13.5539C14.0328 12.3908 14.2722 11.0853 14.4399 9.63734L14.6314 7.99949H17.1698V16.9483H12.3565ZM25.264 0.451172H7.1839L6.24996 8.7116C6.05838 10.3969 5.86681 11.7499 5.67523 12.8181C5.48365 13.8862 5.22023 14.717 4.90892 15.3342C4.59761 15.9513 4.21445 16.3549 3.75946 16.5922C3.30446 16.8296 2.70579 16.9246 2.01132 16.9246H0.813965V24.4729H6.01049L6.20206 22.7876H25.5274V24.4729H28.401H26.7008V16.9483H25.24V0.451172" fill="#00AEEF"/>
<path d="M49.4988 0.451172H44.0867L34.5797 12.011V0.451172H26.7251V16.9483H28.4253V24.4966C29.0959 24.0693 29.8143 23.6896 30.6045 23.381C31.5385 23.0012 32.5682 22.7163 33.6698 22.5502L41.4526 13.3403V23.1436C41.6681 23.2148 41.8597 23.286 42.0512 23.381C42.8175 23.7133 43.536 24.0693 44.2065 24.4966H46.0504V22.7876H49.4988C47.7746 21.6245 46.4575 20.1528 45.5475 18.3962L49.4988 17.2094V7.71465L45.5475 6.52781C46.4575 4.77128 47.7507 3.32333 49.4988 2.13649V0.451172Z" fill="#F37029"/>
<path d="M28.4253 16.9482H26.7251V24.4966H28.4253V16.9482Z" fill="#274F46"/>
<path d="M57.4011 0C54.4556 0 51.989 0.617158 50.0014 1.82774C49.8338 1.92269 49.6662 2.04137 49.4985 2.16005V7.71448L54.0964 9.09122C54.9345 7.90437 56.0361 7.31095 57.449 7.31095C58.6463 7.31095 59.6521 7.76195 60.4903 8.66395C61.3284 9.56596 61.7355 10.824 61.7355 12.4856C61.7355 14.1234 61.3284 15.4052 60.4903 16.3072C59.6521 17.2092 58.6463 17.6602 57.449 17.6602C56.0361 17.6602 54.9106 17.0668 54.0964 15.88L49.4985 17.2567V22.7874H54.743V24.7575C55.5811 24.8762 56.4671 24.9474 57.4011 24.9474C58.0716 24.9474 58.7182 24.9237 59.3647 24.8525L60.8016 22.8111H65.3036C66.046 22.3364 66.7165 21.7904 67.2912 21.197C68.4168 20.0576 69.2549 18.7284 69.8536 17.233C70.4283 15.7138 70.7396 14.1472 70.7396 12.5093C70.7396 10.8715 70.4523 9.28111 69.8536 7.78569C69.2789 6.26653 68.4168 4.961 67.2912 3.82163C66.1657 2.68227 64.7768 1.75653 63.1244 1.0919C61.4481 0.332316 59.5563 0 57.4011 0Z" fill="#FFCB05"/>
<path d="M49.4986 17.2331L45.5474 18.4199C46.4574 20.1764 47.7505 21.6244 49.4986 22.8112V17.2331ZM49.4986 2.16016C47.7744 3.32326 46.4574 4.79495 45.5474 6.55148L49.4986 7.73832V2.16016Z" fill="#EF4123"/>
<path d="M25.5274 24.4966H22.2706H8.42914H6.03443L5.29207 31.0717C5.1005 32.7807 4.90892 34.1575 4.6934 35.2256C4.47787 36.2938 4.21445 37.1246 3.87919 37.718C3.56788 38.3114 3.16078 38.715 2.68184 38.9286C2.2029 39.1422 1.58027 39.2609 0.813965 39.2846V46.9516C2.9692 46.9279 4.76524 46.6668 6.22601 46.2158C6.48943 46.1446 6.7289 46.0496 6.96837 45.9547C7.08811 45.8835 7.23179 45.836 7.37547 45.7648C8.33336 45.2901 9.1715 44.6492 9.88992 43.8184C10.8478 42.679 11.6141 41.1361 12.1649 39.2372C12.7157 37.3145 13.1707 34.8933 13.5059 31.9737L13.6975 30.3358H16.7867V44.9815C18.2714 45.2663 19.5885 45.7885 20.738 46.5006C20.9295 46.6193 21.0972 46.738 21.2648 46.8567H22.3664V45.1002H25.5274V37.4569H23.2524C23.1806 37.1009 23.1327 36.6736 23.0848 36.1989C23.0369 35.7241 23.0129 35.2731 23.0129 34.7984C23.0129 33.1605 23.3003 31.5702 23.875 30.0747C24.2821 28.9828 24.8329 28.0096 25.5274 27.1076V24.4966Z" fill="#F37029"/>
<path d="M25.5276 22.7876H6.22624L6.03467 24.4967H8.42938H22.2708H25.5276V22.7876Z" fill="#274F46"/>
<path d="M70.0448 22.7876H65.2794C64.6088 23.2149 63.8904 23.5947 63.1002 23.9032C61.9507 24.378 60.7055 24.6865 59.3405 24.829L54.9103 31.1904H54.7187V24.7578C52.8987 24.4967 51.3182 23.9507 49.9772 23.1199C49.8095 23.025 49.6419 22.9063 49.4743 22.7876V24.4729H46.0259V25.9446C46.0738 25.9921 46.1217 26.0633 46.1935 26.1108C47.319 27.2739 48.1572 28.6269 48.7319 30.1698C49.3066 31.7127 49.594 33.3742 49.594 35.107C49.594 36.7211 49.3066 38.264 48.708 39.712C48.1332 41.1837 47.2711 42.4655 46.1456 43.6048C46.0977 43.6523 46.0738 43.676 46.0259 43.7235V45.1003H46.1935V46.8093H49.2348C49.9532 46.2634 50.7674 45.8361 51.7013 45.5275C52.6353 45.2189 53.665 45.029 54.7426 44.9816V39.0948H54.9342L58.6939 44.9578H68.7277V46.8093H70.0448L61.3041 34.3712L70.0448 22.7876Z" fill="#00AEEF"/>
<path d="M49.4982 22.7876H46.0259V24.4967H49.4982V22.7876Z" fill="#274F46"/>
<path d="M54.7429 22.7876H49.4985C49.6662 22.9063 49.8338 23.0012 50.0014 23.1199C51.3664 23.9507 52.9469 24.4967 54.7429 24.7578V22.7876ZM65.2797 22.7876H60.7776L59.3408 24.829C60.7058 24.6865 61.975 24.378 63.1005 23.9032C63.8907 23.5947 64.6092 23.2149 65.2797 22.7876Z" fill="#00904C"/>
<path d="M13.3385 44.6489C11.1833 44.6489 9.29148 44.9812 7.61518 45.6696C7.54334 45.6933 7.44755 45.7408 7.37571 45.7646C7.25598 45.8358 7.11229 45.8832 6.96861 45.9545C5.57968 46.5953 4.40627 47.4261 3.44839 48.3993C2.32287 49.5387 1.48472 50.868 0.886043 52.3634C0.311312 53.8826 0 55.4492 0 57.087C0 58.7249 0.287365 60.3152 0.886043 61.8107C1.46077 63.3061 2.32287 64.6354 3.44839 65.7747C4.5739 66.9141 5.96283 67.8398 7.61518 68.5282C9.26754 69.2166 11.1833 69.5489 13.3385 69.5489C16.284 69.5489 18.7506 68.9317 20.7382 67.7211C21.3129 67.3651 21.8637 66.9616 22.3666 66.558V62.1905L16.6672 60.4814C15.829 61.6683 14.7035 62.2617 13.2907 62.2617C12.0933 62.2617 11.0875 61.8107 10.2494 60.9087C9.41122 60.0067 9.00412 58.7486 9.00412 57.087C9.00412 55.4492 9.41122 54.1674 10.2494 53.2654C11.0875 52.3634 12.0933 51.9124 13.2907 51.9124C14.7035 51.9124 15.829 52.5058 16.6672 53.6927L22.3666 51.9836V47.616C22.0314 47.3312 21.6721 47.0463 21.265 46.7852H16.7869V44.9338C15.7093 44.7676 14.5838 44.6489 13.3385 44.6489Z" fill="#FFCB05"/>
<path d="M7.37536 45.7883C7.23168 45.8358 7.11194 45.907 6.96826 45.9782C7.11194 45.907 7.25563 45.8358 7.37536 45.7883ZM16.7866 44.9575V46.809H21.2886C21.121 46.6903 20.9294 46.5716 20.7618 46.453C19.5884 45.7646 18.2713 45.2661 16.7866 44.9575Z" fill="#EF4123"/>
<path d="M46.026 45.1001H44.3018C43.5833 45.5511 42.817 45.9546 41.9549 46.2869C40.6618 46.7854 39.2489 47.094 37.6924 47.2127V56.66L28.2093 45.1001H25.5272V46.8092H22.3662V47.6399C23.5636 48.6369 24.4975 49.8237 25.192 51.1767L22.3662 52.0313V62.2144L25.192 63.0689C24.4975 64.4219 23.5636 65.6088 22.3662 66.6057V69.1455H30.8435V57.9892L40.3026 69.1455H46.1936H43.9186L46.1936 66.2259V46.8329H46.026V45.1001Z" fill="#00AEEF"/>
<path d="M25.5272 45.1001H22.3662V46.8329H25.5272V45.1001Z" fill="#274F46"/>
<path d="M46.1942 45.1001H46.0259V46.8329H46.1942V45.1001Z" fill="#00AEEF"/>
<path d="M22.3662 62.2143V66.5818C23.5636 65.5849 24.4975 64.3981 25.192 63.0451L22.3662 62.2143ZM22.3662 47.6636V52.0312L25.192 51.1766C24.4975 49.8236 23.5636 48.6605 22.3662 47.6636Z" fill="#00904C"/>
<path d="M56.8503 55.6156C56.3235 55.6156 55.9164 55.4257 55.5811 55.0696C55.2698 54.7136 55.1022 54.1913 55.1022 53.5742C55.1022 52.957 55.2698 52.4348 55.5811 52.055C55.8924 51.699 56.2995 51.5091 56.7545 51.5091H60.0832V55.6156H56.8503ZM58.6942 44.9814H55.3656C55.1501 44.9814 54.9585 44.9814 54.743 45.0052V46.8567H49.2351C49.0914 46.9753 48.9238 47.094 48.8041 47.2127C47.9899 47.9248 47.3433 48.8031 46.8883 49.8475C46.4333 50.8919 46.1938 52.055 46.1938 53.3606C46.1938 55.2832 46.577 56.8024 47.3433 57.918C48.1096 59.0574 49.2591 59.8645 50.7438 60.3392L46.1938 66.2259V69.1456H53.0906L58.4069 61.6922H60.0592V69.1456H68.7041V46.8329H59.8916L58.6942 44.9814Z" fill="#F37029"/>
<path d="M54.7427 44.9814C53.6651 45.0289 52.6354 45.2188 51.7014 45.5274C50.7675 45.836 49.9533 46.2632 49.2349 46.8092H54.7427V44.9814ZM68.7278 44.9814H58.694L59.8913 46.8329H68.7278V44.9814Z" fill="#274F46"/>
<path d="M46.1939 66.2261L43.9189 69.1457H46.1939V66.2261Z" fill="#274F46"/>
<path d="M32.4241 32.2584C32.5678 31.0953 32.9988 30.1933 33.7172 29.5287C34.4356 28.8641 35.3217 28.5317 36.4472 28.5317C37.5488 28.5317 38.4588 28.8641 39.1772 29.5287C39.8956 30.1933 40.3027 31.1191 40.4703 32.2584H32.4241ZM36.3035 22.3364C35.3696 22.3364 34.4835 22.4076 33.6454 22.5263L31.993 24.4965H28.4249C27.6826 24.9712 27.012 25.5172 26.4373 26.1106C26.126 26.4429 25.8386 26.7752 25.5513 27.1075V37.4568H40.2787C40.183 38.7386 39.704 39.6643 38.8419 40.2103C37.9798 40.78 37.0459 41.0648 36.0401 41.0648C35.0822 41.0648 34.1962 40.8512 33.3341 40.4239C32.4959 39.9966 31.9212 39.4032 31.6578 38.6436L26.5092 43.7471C27.036 44.2455 27.5868 44.6965 28.2333 45.1001C28.401 45.2188 28.5926 45.3374 28.7841 45.4324C30.8196 46.643 33.3341 47.2601 36.3275 47.2601C36.8064 47.2601 37.2854 47.2364 37.7403 47.2126V45.1001H44.3498C44.9724 44.6965 45.5471 44.2455 46.0739 43.7233V25.9444C45.5232 25.3985 44.9005 24.9 44.23 24.4727H41.4521V23.1197C39.9435 22.5975 38.2193 22.3364 36.3035 22.3364Z" fill="#FFCB05"/>
<path d="M41.4525 23.1435V24.4965H44.2065C43.5599 24.0693 42.8415 23.6895 42.0512 23.3809C41.8357 23.2859 41.6441 23.2147 41.4525 23.1435ZM33.6458 22.5264C32.5442 22.6925 31.5145 22.9774 30.5806 23.3572C29.7903 23.6895 29.0719 24.0455 28.4014 24.4728H31.9695L33.6458 22.5264Z" fill="#EF4123"/>
<path d="M25.5276 27.1074C24.8332 28.0094 24.2824 28.9826 23.8753 30.0745C23.3005 31.5937 23.0132 33.1603 23.0132 34.7982C23.0132 35.2492 23.0371 35.7239 23.085 36.1986C23.1329 36.6734 23.1808 37.1006 23.2527 37.4567H25.5276V27.1074Z" fill="#EF4123"/>
<path d="M46.0259 25.9683V43.7472C46.0738 43.6997 46.0977 43.676 46.1456 43.6285C47.2711 42.5129 48.1093 41.2073 48.708 39.7356C49.2827 38.264 49.594 36.7448 49.594 35.1307C49.594 33.3979 49.3066 31.7601 48.7319 30.1934C48.1572 28.6505 47.319 27.2738 46.1935 26.1344C46.1456 26.0632 46.0977 26.0157 46.0259 25.9683Z" fill="#00904C"/>
<path d="M28.2095 45.1001C28.2095 45.1001 28.2334 45.1001 28.2095 45.1001V45.1001ZM44.3019 45.1001H37.6925V47.2127C39.2491 47.094 40.662 46.7854 41.9551 46.2869C42.8172 45.9546 43.6075 45.5748 44.3019 45.1001Z" fill="#00904C"/>
</svg>
