<svg width="40" height="40" viewBox="0 0 40 40" fill="none" xmlns="http://www.w3.org/2000/svg">
<path d="M20 40C31.0457 40 40 31.0457 40 20C40 8.9543 31.0457 0 20 0C8.9543 0 0 8.9543 0 20C0 31.0457 8.9543 40 20 40Z" fill="white"/>
<path d="M19.9291 13.0609C20.3549 13.0609 20.7711 13.1806 21.1252 13.4048C21.4792 13.629 21.7552 13.9477 21.9181 14.3206C22.0811 14.6934 22.1237 15.1037 22.0406 15.4996C21.9576 15.8954 21.7525 16.259 21.4514 16.5444C21.1503 16.8298 20.7667 17.0241 20.3491 17.1028C19.9315 17.1816 19.4986 17.1412 19.1052 16.9867C18.7118 16.8323 18.3756 16.5707 18.139 16.2352C17.9025 15.8996 17.7762 15.5051 17.7762 15.1015C17.7769 14.5605 18.0039 14.0418 18.4075 13.6592C18.8111 13.2767 19.3583 13.0615 19.9291 13.0609ZM19.9291 10C18.8646 10 17.824 10.2992 16.9389 10.8598C16.0538 11.4203 15.364 12.2171 14.9566 13.1492C14.5492 14.0814 14.4426 15.1071 14.6503 16.0967C14.858 17.0863 15.3706 17.9953 16.1233 18.7088C16.876 19.4222 17.835 19.9081 18.8791 20.1049C19.9231 20.3018 21.0053 20.2007 21.9888 19.8146C22.9723 19.4285 23.8129 18.7746 24.4043 17.9357C24.9957 17.0968 25.3113 16.1104 25.3113 15.1015C25.3113 13.7485 24.7443 12.4509 23.7349 11.4942C22.7255 10.5375 21.3566 10 19.9291 10Z" fill="#333534"/>
<path d="M19.9291 24.5392C18.0979 24.5402 16.3009 24.0698 14.7298 23.1781C14.3876 22.9828 14.1412 22.6668 14.0447 22.2994C13.9482 21.932 14.0094 21.5434 14.215 21.2188C14.4205 20.8942 14.7536 20.6602 15.1411 20.5682C15.5285 20.4761 15.9386 20.5336 16.2814 20.728C17.4077 21.3517 18.691 21.675 19.9954 21.6635C21.2997 21.652 22.5765 21.3062 23.6904 20.6627C23.8582 20.5626 24.0451 20.4949 24.2406 20.4634C24.4361 20.4319 24.6362 20.4373 24.8295 20.4793C25.0227 20.5212 25.2053 20.5989 25.3669 20.7079C25.5284 20.8169 25.6657 20.955 25.7708 21.1143C25.8759 21.2737 25.9468 21.4511 25.9794 21.6365C26.0121 21.8218 26.0058 22.0115 25.961 22.1945C25.9161 22.3776 25.8336 22.5505 25.7182 22.7033C25.6027 22.856 25.4566 22.9857 25.2882 23.0849C23.6813 24.0368 21.8241 24.5408 19.9291 24.5392Z" fill="#333534"/>
<path d="M24.2349 29.9979C24.0369 29.9981 23.8408 29.9613 23.6579 29.8895C23.4749 29.8176 23.3088 29.7123 23.169 29.5794L19.9291 26.5085L16.6893 29.5794C16.5494 29.7125 16.3833 29.8182 16.2004 29.8903C16.0174 29.9625 15.8212 29.9998 15.6231 30C15.4249 30.0002 15.2287 29.9634 15.0455 29.8917C14.8624 29.8199 14.696 29.7146 14.5558 29.5819C14.4157 29.4491 14.3045 29.2914 14.2287 29.1179C14.1529 28.9443 14.114 28.7583 14.1142 28.5705C14.1143 28.3827 14.1535 28.1967 14.2296 28.0233C14.3056 27.8498 14.417 27.6923 14.5574 27.5597L19.9291 22.4682L25.3008 27.5597C25.5115 27.7595 25.655 28.014 25.7131 28.2911C25.7712 28.5682 25.7414 28.8554 25.6273 29.1163C25.5132 29.3773 25.32 29.6004 25.0721 29.7573C24.8243 29.9142 24.5329 29.9979 24.2349 29.9979Z" fill="#333534"/>
</svg>
