<svg width="12" height="11" viewBox="0 0 12 11" fill="none" xmlns="http://www.w3.org/2000/svg">
<path d="M0.316319 6.34835L4.2756 10.0667C4.68312 10.4572 5.33685 10.4572 5.74437 10.0667C6.15189 9.67613 6.15189 9.04963 5.74437 8.65909L3.55951 6.64126L10.3171 6.64126C10.8944 6.64126 11.3613 6.19376 11.3613 5.64049C11.3613 5.08721 10.8944 4.63971 10.3171 4.63971L3.568 4.63971L5.75286 2.62189C6.16038 2.23134 6.16038 1.60484 5.75286 1.2143C5.34534 0.82375 4.69161 0.82375 4.28408 1.2143L0.324809 4.93262C0.121048 5.1279 0.0191689 5.38012 0.0191689 5.64049C0.0191689 5.90085 0.112558 6.15308 0.316319 6.34835Z" fill="#FFCB05"/>
</svg>
