<svg width="12" height="11" viewBox="0 0 12 11" fill="none" xmlns="http://www.w3.org/2000/svg">
<path d="M11.6837 4.9329L7.7244 1.21457C7.31688 0.824023 6.66315 0.824023 6.25563 1.21457C5.84811 1.60512 5.84811 2.23162 6.25563 2.62216L8.44049 4.63999H1.68295C1.10562 4.63999 0.638672 5.08749 0.638672 5.64076C0.638672 6.19404 1.10562 6.64154 1.68295 6.64154H8.432L6.24714 8.65936C5.83962 9.04991 5.83962 9.67641 6.24714 10.067C6.65466 10.4575 7.30839 10.4575 7.71592 10.067L11.6752 6.34863C11.879 6.15335 11.9808 5.90113 11.9808 5.64076C11.9808 5.3804 11.8874 5.12817 11.6837 4.9329Z" fill="white"/>
</svg>
