<svg width="40" height="40" viewBox="0 0 40 40" fill="none" xmlns="http://www.w3.org/2000/svg">
<path fill-rule="evenodd" clip-rule="evenodd" d="M0 20C0 8.95431 8.95431 0 20 0C31.0457 0 40 8.95431 40 20C40 31.0457 31.0457 40 20 40C8.95431 40 0 31.0457 0 20Z" fill="white"/>
<path fill-rule="evenodd" clip-rule="evenodd" d="M29.4952 15.8126C29.6481 15.3442 29.4952 15 28.7673 15H26.3605C25.7485 15 25.4664 15.2973 25.3134 15.6252C25.3134 15.6252 24.0895 18.3652 22.3556 20.145C21.7946 20.6602 21.5396 20.8242 21.2336 20.8242C21.0807 20.8242 20.8512 20.6602 20.8512 20.1919V15.8126C20.8512 15.2505 20.6816 15 20.1716 15H16.3895C16.007 15 15.777 15.2609 15.777 15.5081C15.777 16.0409 16.6439 16.1638 16.7333 17.6626V20.9179C16.7333 21.6316 16.5929 21.761 16.287 21.761C15.471 21.761 13.4863 19.0087 12.3092 15.8594C12.0785 15.2473 11.8471 15 11.232 15H8.8252C8.13754 15 8 15.2973 8 15.6252C8 16.2107 8.81596 19.1146 11.7993 22.9553C13.7881 25.5782 16.5903 27 19.1401 27C20.67 27 20.8592 26.6842 20.8592 26.1403V24.1579C20.8592 23.5263 21.0042 23.4003 21.4886 23.4003C21.8456 23.4003 22.4576 23.5642 23.8855 24.8288C25.5174 26.3276 25.7864 27 26.7043 27H29.1112C29.7988 27 30.1426 26.6842 29.9443 26.061C29.7272 25.4399 28.9481 24.5388 27.9143 23.4705C27.3533 22.8616 26.5118 22.2059 26.2568 21.878C25.8999 21.4565 26.0019 21.2691 26.2568 20.8944C26.2568 20.8944 29.1892 17.1006 29.4952 15.8126Z" fill="#333534"/>
</svg>
